<svg width="30" height="30" viewBox="0 0 30 30" fill="none" xmlns="http://www.w3.org/2000/svg">
<g clip-path="url(#clip0_806_120)">
<path d="M8.59091 6.35539L2.56062 0.24473L0.439521 2.3941L27.4408 29.7553L29.5619 27.6059L26.5318 24.5354C28.7805 21.8822 30.0116 18.4974 29.9999 15C29.9999 8.78141 26.2917 3.67096 21.001 1.31942V4.35955C24.5817 6.46636 26.9998 10.5112 26.9998 15C26.9921 17.7005 26.1117 20.3241 24.4932 22.4696L22.5641 20.5148C23.4671 18.8549 24.0011 16.8089 24.0011 15C24.0011 12.308 22.8386 9.07175 21.001 7.39968V18.9309L18.0008 15.8908V0L8.59091 6.35539ZM3.00014 22.6003H7.04583L18.0008 30V24.3043L1.65308 7.73865C1.15789 7.98983 0.741185 8.3753 0.449336 8.85219C0.157486 9.32907 0.0019385 9.87867 0 10.4398V19.5602C0 21.2368 1.34556 22.6003 3.00014 22.6003Z" fill="white"/>
</g>
<defs>
<clipPath id="clip0_806_120">
<rect width="30" height="30" fill="white"/>
</clipPath>
</defs>
</svg>
