<svg width="11" height="10" viewBox="0 0 11 10" fill="none" xmlns="http://www.w3.org/2000/svg">
<path d="M5.27377 0.658188L1.00778 3.76073V6.34617L5.27377 9.44871C5.27377 2.72655 5.27377 5.95836 5.27377 0.658188Z" fill="white"/>
<path d="M0.000636101 7.05342H2.19827L2.19827 2.78743H0.000636101L0.000636101 7.05342Z" fill="white"/>
<path d="M7.98852 9.19016C7.72998 9.19016 7.6007 9.06089 7.47143 8.93162C7.34216 8.67307 7.47143 8.41453 7.72997 8.28525C8.11779 8.15598 8.50561 7.89744 8.89342 7.50962C9.15197 7.25107 9.41051 6.86326 9.66906 6.34617C9.79833 5.95835 9.92761 5.44126 9.92761 4.92417C9.92761 4.40708 9.79833 4.01927 9.66906 3.50218C9.53978 3.11436 9.28124 2.72654 8.89342 2.33872C8.63488 2.08018 8.24706 1.82163 7.72997 1.56309C7.47143 1.43382 7.34216 1.17527 7.47143 0.916726C7.6007 0.658182 7.85925 0.528909 8.11779 0.658182C8.63488 0.916727 9.15197 1.17527 9.53979 1.69236C9.9276 2.08018 10.3154 2.59727 10.574 3.11436C10.8325 3.63145 10.9618 4.27781 10.9618 4.92417C10.9618 5.57053 10.8325 6.08762 10.574 6.73399C10.3154 7.25108 10.0569 7.76816 9.53979 8.15598C9.15197 8.5438 8.63488 8.93162 8.11779 9.19016C8.11779 9.19016 8.11779 9.19016 7.98852 9.19016Z" fill="white"/>
<path d="M7.08358 7.12182C6.9543 7.12182 6.69576 6.99255 6.69576 6.86327C6.56649 6.60473 6.69576 6.34618 6.95431 6.21691C7.08358 6.08764 7.21285 6.08764 7.34213 5.95837C7.4714 5.8291 7.60067 5.69982 7.60067 5.57055C7.72994 5.44128 7.72994 5.18273 7.72994 5.05346C7.72994 4.92419 7.72994 4.66564 7.60067 4.53637C7.4714 4.4071 7.4714 4.27783 7.34213 4.14855C7.21285 4.01928 7.08358 3.89001 6.95431 3.89001C6.69576 3.76074 6.56649 3.50219 6.69576 3.24365C6.82504 2.9851 7.08358 2.85583 7.34213 2.9851C7.60067 3.11437 7.85921 3.24365 8.11776 3.50219C8.3763 3.76074 8.50558 4.01928 8.63485 4.27783C8.76412 4.53637 8.76412 4.92419 8.76412 5.18273C8.76412 5.44128 8.76412 5.8291 8.63485 6.08764C8.50558 6.34619 8.3763 6.60473 8.11776 6.86327C7.85921 7.12182 7.60067 7.25109 7.34213 7.38036C7.21285 7.12182 7.08358 7.12182 7.08358 7.12182Z" fill="white"/>
</svg>
